<?xml version="1.0" encoding="utf-8"?>
<!-- Uploaded to: SVG Repo, www.svgrepo.com, Generator: SVG Repo Mixer Tools -->
<svg fill="#000000" height="800px" width="800px" version="1.2" baseProfile="tiny" id="earth" xmlns="http://www.w3.org/2000/svg" xmlns:xlink="http://www.w3.org/1999/xlink"
	  viewBox="0 0 256 163" xml:space="preserve">
<path d="M63.5,113.9c-13,0-23.5,10.5-23.5,23.5s10.5,23.5,23.5,23.5c13,0,23.5-10.5,23.5-23.5S76.5,113.9,63.5,113.9z M63.5,146.4
	c-4.9,0-9-4.1-9-9c0-4.9,4.1-9,9-9c4.9,0,9,4.1,9,9C72.5,142.3,68.5,146.4,63.5,146.4z M211.3,112.9c-13,0-23.5,10.5-23.5,23.5
	s10.5,23.5,23.5,23.5c13,0,23.5-10.5,23.5-23.5S224.3,112.9,211.3,112.9z M211.3,145.4c-4.9,0-9-4.1-9-9c0-4.9,4.1-9,9-9
	c4.9,0,9,4.1,9,9C220.3,141.3,216.3,145.4,211.3,145.4z M0,124c0,4.6,3.7,8.2,8.2,8.2l22.6,1c0.9,0,1.7-0.7,1.9-1.5
	c2.6-14.7,15.4-25.9,30.8-25.9s28.3,11.2,30.8,25.9c0.2,0.9,0.9,1.5,1.9,1.5h3.2l30.9-1V3H0V124z M22.4,49.2
	c2.2-5.7,7.8-9.7,14.2-9.7c6,0,11.2,3.4,13.7,8.5c0.3,0,0.5-0.1,0.8-0.1h46.7c3.8,0,6.9,3.1,6.9,6.9v0c0,3.8-3.1,6.9-6.9,6.9H51.1
	c-0.3,0-0.5,0-0.8-0.1c-2.5,5-7.7,8.5-13.7,8.5c-6.5,0-12-4-14.2-9.7h14.2V49.2H22.4z M254.1,115.4h-5v-22c0-7.5-6.1-13.6-13.7-13.6
	h-24.3c-0.5,0-1-0.3-1.4-0.6l-38-37c-1.7-1.7-4.1-2.7-6.6-2.8h-27.5v92.8h40.9c0.9,0,1.7-0.7,1.9-1.5c2.6-14.7,15.4-25.9,30.8-25.9
	s28.3,11.2,30.8,25.9c0.2,0.9,0.9,1.5,1.9,1.5h3.2c4.9,0,8.7-3.9,8.7-8.7v-6.3C256,116.3,255.1,115.4,254.1,115.4z M191.6,79.9
	h-41.4c-1,0-1.9-0.9-1.9-1.9V51.6c0-1,0.9-1.9,1.9-1.9h13.9c0.5,0,1,0.3,1.5,0.6L193,76.6C194,77.9,193.2,79.9,191.6,79.9z"/>
</svg>